<svg width="172" height="41" viewBox="0 0 172 41" fill="none" xmlns="http://www.w3.org/2000/svg">
<rect width="172" height="41" fill="#F5F5F5"/>
<g clip-path="url(#clip0_0_1)">
<rect width="1920" height="11090" transform="translate(-149 -24)" fill="white"/>
<rect x="-149" y="-24" width="1920" height="11090" fill="#102B2A"/>
<path d="M159.078 40.4492V40.0381L161.388 39.3528L161.427 31.1101L161.388 23.6115L159.078 22.9262V22.4563L164.188 21.7906L164.56 22.006L164.697 24.2967L164.677 31.1101L164.717 39.3528L167.203 40.0381V40.4492H159.078ZM164.364 26.098L164.11 25.8434C164.527 24.6557 165.271 23.6376 166.342 22.7891C167.425 21.9407 168.782 21.5165 170.414 21.5165L172 21.5557V26.2546H171.471L169.611 22.6913C168.384 22.6913 167.327 22.998 166.44 23.6115C165.565 24.2119 164.873 25.0407 164.364 26.098Z" fill="white"/>
<path d="M138.52 36.1028C138.52 34.5234 139.356 33.1137 141.026 31.8737C142.697 30.6338 145.373 29.6026 149.054 28.7803L149.191 29.1719C146.893 29.7331 145.125 30.5489 143.885 31.6192C142.658 32.6765 142.044 33.9883 142.044 35.5546C142.044 36.9642 142.292 37.9693 142.788 38.5697C143.284 39.1701 144.002 39.4703 144.942 39.4703C145.921 39.4703 146.789 39.144 147.546 38.4914C148.316 37.8388 148.747 37.0948 148.838 36.2594L149.073 36.279C149.034 37.3362 148.492 38.3413 147.448 39.2941C146.417 40.2339 145.118 40.7038 143.552 40.7038C141.96 40.7038 140.72 40.2861 139.832 39.4508C138.958 38.6154 138.52 37.4994 138.52 36.1028ZM140.145 24.0226C140.498 23.3961 141.144 22.8088 142.084 22.2605C143.036 21.7123 144.303 21.4382 145.882 21.4382C147.696 21.4382 149.158 22.006 150.268 23.1416C151.377 24.2772 151.945 26.235 151.971 29.0152L152.069 39.3529L154.399 40.0381V40.4493H149.896L149.406 39.9794L148.721 36.9447L148.78 29.2306C148.806 26.4374 148.479 24.5904 147.801 23.6898C147.122 22.7761 146.189 22.3193 145.001 22.3193C143.904 22.3193 143.004 22.502 142.299 22.8675C141.607 23.2199 141 23.6898 140.478 24.2772L140.145 24.0226Z" fill="white"/>
<path d="M118.764 40.4493V40.0495L121.339 39.4739L121.371 27.9136L121.339 17.4725L118.764 16.9289V16.4652H126.665C128.671 16.4652 130.162 16.9609 131.138 17.9522C132.125 18.9329 132.619 20.1694 132.619 21.6617C132.619 23.1221 132.259 24.3266 131.54 25.2753C130.822 26.2134 129.856 26.7997 128.644 27.0342V27.1461C130.114 27.3913 131.363 28.0362 132.393 29.0808C133.423 30.1255 133.938 31.5698 133.938 33.4139C133.938 35.4393 133.316 37.1181 132.071 38.4506C130.838 39.783 129.121 40.4493 126.922 40.4493H118.764ZM124.219 39.6658L124.75 40.0016H126.327C127.925 40.0016 129.095 39.4792 129.835 38.4346C130.575 37.39 130.945 35.7377 130.945 33.4779C130.945 31.5485 130.623 30.0881 129.98 29.0968C129.336 28.0948 128.397 27.5938 127.164 27.5938H124.219L124.203 27.8017L124.219 39.6658ZM124.203 26.8423V27.1461H126.295C127.496 27.1461 128.371 26.6451 128.918 25.6431C129.475 24.6411 129.754 23.2873 129.754 21.5818C129.754 19.9509 129.433 18.773 128.789 18.0481C128.145 17.3233 127.255 16.9609 126.118 16.9609H124.702L124.251 17.2167L124.203 26.8423Z" fill="white"/>
<path d="M84.189 31.1493C84.189 28.2517 84.9852 25.9087 86.5776 24.1205C88.17 22.3193 90.2127 21.4186 92.7058 21.4186C95.1988 21.4186 97.248 22.2671 98.8535 23.9639C100.472 25.6477 101.281 28.0037 101.281 31.0318C101.281 33.9426 100.492 36.3051 98.9122 38.1194C97.3459 39.9337 95.3032 40.8408 92.7841 40.8408C90.2649 40.8408 88.2026 39.9859 86.5972 38.276C84.9917 36.5661 84.189 34.1906 84.189 31.1493ZM87.6936 30.7577C87.7066 34.0731 88.1569 36.4943 89.0445 38.0215C89.9451 39.5486 91.1525 40.3122 92.6666 40.3122C94.2851 40.3122 95.5251 39.6531 96.3866 38.3347C97.248 37.0034 97.6723 34.6017 97.6592 31.1297C97.6592 27.8666 97.2089 25.5302 96.3083 24.1205C95.4076 22.6978 94.2068 21.9864 92.7058 21.9864C91.0872 21.9864 89.8472 22.6325 88.9858 23.9247C88.1243 25.2169 87.6936 27.4946 87.6936 30.7577Z" fill="white"/>
<path d="M69.0154 40.4492V40.0381L71.3257 39.3528L71.3648 31.1101L71.3257 23.6115L69.0154 22.9262V22.4563L74.1254 21.7906L74.4975 22.006L74.6345 24.2967L74.6149 31.1101L74.6541 39.3528L77.1406 40.0381V40.4492H69.0154ZM74.3017 26.098L74.0471 25.8434C74.4648 24.6557 75.2088 23.6376 76.2791 22.7891C77.3625 21.9407 78.72 21.5165 80.3515 21.5165L81.9374 21.5557V26.2546H81.4088L79.5488 22.6913C78.3218 22.6913 77.2646 22.998 76.377 23.6115C75.5025 24.2119 74.8107 25.0407 74.3017 26.098Z" fill="white"/>
<path d="M57.2681 23.0633V22.4563C58.5603 22.0647 59.6828 21.373 60.6356 20.381C61.6015 19.3759 62.2346 18.1555 62.5348 16.7197H62.9851L63.3767 21.9864L63.1221 31.1102L63.2592 38.511L64.1011 39.4703H66.3918V39.8815L62.339 40.6059C61.36 40.6059 60.6617 40.3579 60.244 39.8619C59.8394 39.3528 59.6502 38.6023 59.6763 37.6103L59.8133 31.1102V23.3765L57.2681 23.0633ZM62.339 23.0828L62.4173 22.5151H66.7051V23.0828H62.339Z" fill="white"/>
<path d="M42.0945 40.4493V34.5169H42.584L44.5614 38.276L42.5252 40.4493H42.0945ZM42.6231 26.098C42.6231 24.7275 43.0604 23.6115 43.9349 22.75C44.8225 21.8885 46.0168 21.4578 47.5178 21.4578C48.4576 21.4578 49.2799 21.6666 49.9848 22.0843C50.6896 22.502 51.2508 23.0437 51.6685 23.7094L51.4532 24.0814C51.0224 23.4418 50.4677 22.9262 49.789 22.5346C49.1102 22.1431 48.3597 21.9473 47.5374 21.9473C46.5976 21.9473 45.8536 22.1822 45.3054 22.6521C44.7572 23.122 44.4831 23.742 44.4831 24.5121C44.4831 25.3866 44.8812 26.1567 45.6774 26.8224C46.4736 27.4881 47.7201 28.1668 49.417 28.8586C51.1138 29.5765 52.4517 30.4053 53.4306 31.3451C54.4226 32.2718 54.9186 33.5836 54.9186 35.2804C54.9186 36.9642 54.3574 38.3086 53.2348 39.3137C52.1123 40.3187 50.7614 40.8213 49.182 40.8213C47.9029 40.8213 46.826 40.5406 45.9515 39.9794C45.09 39.4181 44.4439 38.8242 44.0132 38.1977L44.4048 37.8453C44.7572 38.4326 45.3511 38.9874 46.1865 39.5095C47.0218 40.0316 47.9812 40.2926 49.0645 40.2926C50.2132 40.2926 51.1203 39.9533 51.786 39.2745C52.4647 38.5958 52.8041 37.7539 52.8041 36.7489C52.8041 35.6133 52.3277 34.7061 51.3748 34.0274C50.4351 33.3487 49.0907 32.6373 47.3416 31.8933C45.5795 31.1102 44.3526 30.2944 43.6608 29.446C42.969 28.5975 42.6231 27.4815 42.6231 26.098ZM51.2574 23.9051L52.9607 21.8494H53.411V27.6251H52.902L51.2574 23.9051Z" fill="white"/>
<path d="M24.4734 31.1493C24.4734 28.2255 25.2043 25.8761 26.6662 24.1009C28.1281 22.3127 30.0403 21.4186 32.4028 21.4186C34.5695 21.4186 36.2598 22.1953 37.4737 23.7485C38.6876 25.3018 39.4055 27.351 39.6274 29.8963H36.4556C36.3382 27.8992 35.9596 26.0784 35.3201 24.4338C34.6805 22.7892 33.6363 21.9668 32.1874 21.9668C30.8822 21.9668 29.8445 22.6586 29.0744 24.0422C28.3174 25.4258 27.9454 27.6055 27.9584 30.5815C27.9584 34.1318 28.4675 36.5596 29.4856 37.8649C30.5037 39.1701 31.9068 39.8227 33.695 39.8227C34.7914 39.8227 35.7247 39.5813 36.4948 39.0983C37.2779 38.6023 37.9371 37.9562 38.4723 37.16L38.8051 37.4145C38.3352 38.3543 37.6173 39.1701 36.6514 39.8619C35.6986 40.5406 34.4782 40.88 32.9902 40.88C30.4841 40.88 28.4348 40.0316 26.8424 38.3347C25.2631 36.6249 24.4734 34.2297 24.4734 31.1493ZM26.9991 30.2878V29.7201H38.7268L39.6274 29.7984L39.647 30.2878H26.9991Z" fill="white"/>
<path d="M0 40.4493V39.9598L3.13261 39.255L3.17177 25.6868L3.13261 12.3145L0 11.6488V11.081H10.4355C12.8372 11.081 14.6189 11.6162 15.7805 12.6865C16.9422 13.7437 17.5231 15.3362 17.5231 17.4637C17.5231 19.7349 16.8508 21.5557 15.5064 22.9262C14.162 24.2837 12.4978 24.9624 10.5138 24.9624C9.74373 24.9624 8.82352 24.9428 7.75321 24.9037C6.69596 24.8645 5.8606 24.8188 5.24713 24.7666L5.28628 24.3163L7.00922 24.375H9.24121C10.8467 24.375 11.9953 23.7746 12.6871 22.5738C13.3919 21.373 13.7443 19.6696 13.7443 17.4637C13.7443 15.4667 13.4311 14.0048 12.8046 13.0781C12.1911 12.1383 11.1991 11.6684 9.82857 11.6684H7.18543L6.69596 12.0991L6.61764 25.7456L6.6568 39.255L9.88731 39.9598V40.4493H0ZM8.75173 24.7862L12.2955 24.6687L17.4252 35.1238C18.3388 36.5727 19.1546 37.7343 19.8725 38.6089C20.6035 39.4703 21.2887 39.9272 21.9283 39.9794V40.4688H17.1902L16.6028 39.8815L8.75173 24.7862Z" fill="white"/>
<path d="M112.049 38.1633C110.014 37.0498 108.747 34.9147 108.747 32.5945V20.1087L114.413 14.0615L120.958 7.07678H94.7803L101.325 14.0615L106.991 20.1087V32.5945C106.991 34.9147 105.724 37.0498 103.689 38.1633L99.5082 40.4498H116.23L112.049 38.1633Z" fill="white"/>
<path d="M110.074 13.3245C111.13 12.2142 111.417 10.7739 110.715 10.1075C110.014 9.44112 108.59 9.80102 107.534 10.9114C106.479 12.0217 106.192 13.462 106.893 14.1284C107.595 14.7947 109.019 14.4348 110.074 13.3245Z" fill="#1D1B18"/>
<path d="M112.466 8.21598L111.822 7.72017L117.511 0.802139L118.119 1.29795L112.466 8.21598Z" fill="white"/>
<path d="M105.609 16.5781L105.009 16.0881L112.372 7.07678H113.396L105.609 16.5781Z" fill="#1D1B18"/>
</g>
<defs>
<clipPath id="clip0_0_1">
<rect width="1920" height="11090" fill="white" transform="translate(-149 -24)"/>
</clipPath>
</defs>
</svg>
