<svg width="57" height="42" viewBox="0 0 57 42" fill="none" xmlns="http://www.w3.org/2000/svg">
<g id="Group 145376">
<path id="Vector" d="M28.01 19.859C26.4242 18.8682 25.455 18.2616 25.455 18.2616C24.2991 17.5054 23.2706 16.6788 22.5301 15.4681C22.2214 14.9629 22.279 14.4026 22.1552 13.8433C21.8662 12.5415 20.9589 11.5559 19.8925 10.8126C19.8452 10.78 4.37218 0.0623998 4.37218 0.0623998C4.37218 0.0623998 4.12794 -0.106016 3.97658 0.110519C3.82522 0.326194 4.0729 0.489454 4.0729 0.489454L16.5007 9.72396C16.7725 9.91386 16.8387 10.2885 16.6478 10.56C16.4577 10.8315 16.0827 10.8977 15.811 10.7078C14.9819 10.1355 3.02113 1.98973 3.02113 1.98973C3.02113 1.98973 2.77689 1.82131 2.62553 2.03785C2.47417 2.25352 2.72185 2.41678 2.72185 2.41678L15.2675 11.4837V11.4854C15.5306 11.6702 15.5994 12.0294 15.4283 12.2992C15.2339 12.5527 14.8727 12.6111 14.6078 12.4255V12.4272L1.78961 3.74778C1.78961 3.74778 1.55139 3.57077 1.40003 3.78645C1.24867 4.00212 1.49033 4.17398 1.49033 4.17398C1.49033 4.17398 13.243 12.618 14.0643 13.2005C14.3361 13.3904 14.4023 13.7651 14.2123 14.0366C14.0222 14.3081 13.6472 14.3743 13.3755 14.1844L0.439419 5.67425C0.439419 5.67425 0.2012 5.49724 0.0498406 5.71292C-0.101519 5.92859 0.14014 6.10044 0.14014 6.10044C0.14014 6.10044 15.5126 16.9624 15.559 16.995C16.6228 17.7426 17.8604 18.2564 19.1839 18.0829C19.7523 18.0081 20.2589 17.7624 20.8402 17.8792C22.2317 18.1602 23.3609 18.8433 24.4677 19.6699C24.4677 19.6699 25.1428 20.1967 26.2797 21.0834C26.7149 20.7887 26.9918 20.5997 27.0563 20.5558L28.01 19.8581V19.859Z" fill="#E0E0E0"/>
<path id="Vector_2" d="M54.8325 36.6249C54.8325 36.6249 43.2819 29.4045 34.6665 24.0195C33.9372 24.4174 33.2199 24.627 32.4468 24.6726C31.9807 24.7001 31.5292 24.7542 31.0872 24.8333C39.1728 31.1377 51.7855 40.9728 51.7855 40.9728C51.7855 40.9728 54.5281 43.3478 56.2592 40.8774C56.2618 40.874 56.2635 40.8714 56.2653 40.868C56.2678 40.8654 56.2696 40.862 56.2721 40.8585C58.0033 38.3881 54.8316 36.6249 54.8316 36.6249H54.8325Z" fill="#E0E0E0"/>
<path id="Vector_3" d="M55.4799 2.47863C55.4799 2.47863 55.2047 1.74654 53.5587 2.79226C50.0129 5.26608 46.4603 7.73045 42.9523 10.2575C40.1969 12.2424 37.4406 14.2273 34.68 16.2062L27.6281 21.3652C27.6281 21.3652 15.62 29.548 13.0322 30.9778C13.0322 30.9778 4.11235 36.472 2.83182 37.2857C1.55129 38.0994 0.552832 39.4631 1.57967 40.9272C3.05972 43.0393 5.43245 41.3792 5.43245 41.3792C13.4287 35.7854 18.3246 29.8436 27.0484 25.2947C27.6805 24.9647 28.3316 24.5978 29.0067 24.3589C30.3844 23.8717 31.5866 23.7308 32.389 23.6835C33.1914 23.6363 33.8785 23.3794 34.6267 22.8887C35.3749 22.3972 43.6008 16.849 47.0012 13.6181C50.4016 10.3873 56.7045 4.69124 55.4808 2.47949" fill="#E0E0E0"/>
</g>
</svg>
