<svg width="38" height="38" viewBox="0 0 38 38" fill="none" xmlns="http://www.w3.org/2000/svg">
<g id="fish">
<g id="fish_2">
<path id="Vector" d="M19.9913 8.85641C18.1231 8.42661 16.1231 8.2375 14.083 8.312" stroke="#C09342" stroke-width="1.5" stroke-linecap="round" stroke-linejoin="round"/>
<path id="Vector_2" d="M27.9341 22.2033C26.4155 20.9483 23.7507 20.6962 21.3496 22.4956L25.0688 25.0686V29.6532C26.788 29.0801 31.3725 26.2148 31.3725 19.9111C31.3725 16.4727 29.2636 13.5558 25.9857 11.3667" stroke="#C09342" stroke-width="1.5" stroke-linecap="round" stroke-linejoin="round"/>
<path id="Vector_3" d="M26.7877 11.8882C26.7877 11.8882 25.6416 9.59595 27.3608 7.3037C27.4754 7.14897 21.6302 5.58451 17.0457 7.87676" stroke="#C09342" stroke-width="1.5" stroke-linecap="round" stroke-linejoin="round"/>
<path id="Vector_4" d="M17.4527 19.338C20.4727 12.5701 14.0831 8.31226 14.0831 8.31226C9.06875 8.31226 5 11.6991 5 16.2606C5 20.8222 9.06875 23.9913 14.0831 23.9913C15.361 24.0085 16.6618 23.8938 18.1919 23.5214" stroke="#C09342" stroke-width="1.5" stroke-linecap="round" stroke-linejoin="round"/>
<path id="Vector_5" d="M6.15747 19.3379H7.87666" stroke="#C09342" stroke-width="1.5" stroke-linecap="round" stroke-linejoin="round"/>
<path id="Vector_6" d="M9.59595 14.7536C9.59595 13.8023 10.3639 13.0344 11.3151 13.0344C12.2664 13.0344 13.0343 13.8023 13.0343 14.7536" stroke="#C09342" stroke-width="1.5" stroke-linecap="round" stroke-linejoin="round"/>
</g>
<g id="Group">
<path id="Vector_7" d="M18.765 36.5299C28.5763 36.5299 36.5299 28.5763 36.5299 18.765C36.5299 8.95365 28.5763 1 18.765 1C8.95365 1 1 8.95365 1 18.765C1 28.5763 8.95365 36.5299 18.765 36.5299Z" stroke="#C09342" stroke-width="1.5" stroke-linecap="round" stroke-linejoin="round"/>
<path id="Vector_8" d="M20.4841 31.2576C19.9225 31.3321 19.3494 31.3722 18.7649 31.3722C14.5873 31.3722 10.891 29.3435 8.59302 26.2146" stroke="#C09342" stroke-width="1.5" stroke-linecap="round" stroke-linejoin="round"/>
</g>
</g>
</svg>
