<svg width="38" height="38" viewBox="0 0 38 38" fill="none" xmlns="http://www.w3.org/2000/svg">
<g id="turkey-fowl-main courses">
<g id="Group">
<path id="Vector" d="M34.2376 29.6531C34.8106 29.0801 35.3837 27.1718 35.3837 25.6417C35.3837 19.1317 30.0485 14.1804 23.3494 14.1804C21.9625 14.1804 20.6101 14.3925 19.3379 14.7936C18.5356 15.0457 17.7677 15.3724 17.0457 15.7678" stroke="#C09342" stroke-width="1.5" stroke-linecap="round" stroke-linejoin="round"/>
<g id="Group_2">
<path id="Vector_2" d="M3.29225 15.3496C3.20056 15.3381 3.10314 15.3267 3.00572 15.3267C1.89971 15.3267 1 16.2264 1 17.3324C1 18.4384 1.89971 19.3381 3.00572 19.3381C3.55013 19.3381 4.0487 19.1203 4.40973 18.765L5.58451 19.9112C5.58451 19.9112 5.58451 23.9226 8.44982 25.6418C8.44982 25.6418 8.10599 27.4871 9.59595 29.6532" stroke="#C09342" stroke-width="1.5" stroke-linecap="round" stroke-linejoin="round"/>
<path id="Vector_3" d="M21.6304 26.2146C21.6304 26.2146 21.7392 18.4381 13.0344 19.3378C13.0344 19.3378 10.7422 17.0456 7.30377 18.1917L6.15765 17.0169C6.51294 16.6559 6.73071 16.1573 6.73071 15.6129C6.73071 14.5069 5.831 13.6072 4.72499 13.6072C3.7164 13.6072 2.87972 14.3522 2.74219 15.3264" stroke="#C09342" stroke-width="1.5" stroke-linecap="round" stroke-linejoin="round"/>
</g>
<g id="Group_3">
<path id="Vector_4" d="M10.169 9.04563C10.0773 9.03417 9.97985 9.02271 9.88243 9.02271C8.77642 9.02271 7.87671 9.92241 7.87671 11.0284C7.87671 12.1344 8.77642 13.0341 9.88243 13.0341C10.4268 13.0341 10.9254 12.8164 11.2864 12.4611L12.4612 13.6072C12.4612 13.6072 12.4326 14.9195 12.6503 15.8995" stroke="#C09342" stroke-width="1.5" stroke-linecap="round" stroke-linejoin="round"/>
<path id="Vector_5" d="M21.0572 14.1805C21.0572 14.1805 18.1919 11.8882 14.1805 11.8882L13.0344 10.7134C13.3897 10.3524 13.6074 9.85384 13.6074 9.30943C13.6074 8.20342 12.7077 7.30371 11.6017 7.30371C10.5931 7.30371 9.75643 8.04869 9.6189 9.0229" stroke="#C09342" stroke-width="1.5" stroke-linecap="round" stroke-linejoin="round"/>
</g>
<path id="Vector_6" d="M23.9224 18.7649C24.6387 19.4812 24.908 21.3265 25.0112 22.6044C25.0685 23.3494 25.6931 23.9225 26.4381 23.9225H26.5011C27.292 23.9225 27.9338 23.2806 27.9338 22.4898C27.9338 21.699 28.5756 21.0571 29.3665 21.0571C30.1573 21.0571 30.7991 21.699 30.7991 22.4898V25.0686C30.7991 25.699 31.3149 26.2147 31.9453 26.2147" stroke="#C09342" stroke-width="1.5" stroke-linecap="round" stroke-linejoin="round"/>
</g>
<g id="Group_4">
<path id="Vector_7" d="M29.0801 1C29.0801 1 30.6789 2.23782 29.0801 4.43838C27.4755 6.63894 29.0801 7.87676 29.0801 7.87676" stroke="#C09342" stroke-width="1.5" stroke-linecap="round" stroke-linejoin="round"/>
<path id="Vector_8" d="M31.9456 5.58472C31.9456 5.58472 33.5444 6.82253 31.9456 9.0231C30.341 11.2237 31.9456 12.4615 31.9456 12.4615" stroke="#C09342" stroke-width="1.5" stroke-linecap="round" stroke-linejoin="round"/>
</g>
<g id="Group_5">
<path id="Vector_9" d="M7.87671 32.5186H11.8882" stroke="#C09342" stroke-width="1.5" stroke-linecap="round" stroke-linejoin="round"/>
<path id="Vector_10" d="M17.0457 32.5186H36.5298" stroke="#C09342" stroke-width="1.5" stroke-linecap="round" stroke-linejoin="round"/>
<path id="Vector_11" d="M34.8107 32.5186C34.8107 34.7363 33.017 36.53 30.7993 36.53H13.6074C11.3896 36.53 9.59595 34.7363 9.59595 32.5186" stroke="#C09342" stroke-width="1.5" stroke-linecap="round" stroke-linejoin="round"/>
</g>
</g>
</svg>
