<svg width="38" height="31" viewBox="0 0 38 31" fill="none" xmlns="http://www.w3.org/2000/svg">
<g id="table reservations">
<g id="Group">
<path id="Vector" d="M1 18.7651H10.169C11.1203 18.7651 11.8882 19.533 11.8882 20.4843V29.6533" stroke="#C09342" stroke-width="1.5" stroke-linecap="square" stroke-linejoin="round"/>
<path id="Vector_2" d="M1 1V29.6532" stroke="#C09342" stroke-width="1.5" stroke-linecap="square" stroke-linejoin="round"/>
<path id="Vector_3" d="M4.43848 23.3496H11.8883" stroke="#C09342" stroke-width="1.5" stroke-linecap="square" stroke-linejoin="round"/>
</g>
<g id="Group_2">
<path id="Vector_4" d="M36.53 18.7651H27.361C26.4098 18.7651 25.6418 19.533 25.6418 20.4843V29.6533" stroke="#C09342" stroke-width="1.5" stroke-linecap="square" stroke-linejoin="round"/>
<path id="Vector_5" d="M36.5298 1V29.6532" stroke="#C09342" stroke-width="1.5" stroke-linecap="square" stroke-linejoin="round"/>
<path id="Vector_6" d="M33.0917 23.3496H25.6418" stroke="#C09342" stroke-width="1.5" stroke-linecap="square" stroke-linejoin="round"/>
</g>
<g id="Group_3">
<g id="Group_4">
<path id="Vector_7" d="M6.15747 8.44972V15.3265L9.23482 14.1746C10.2033 13.8136 11.2749 13.8365 12.2262 14.2434L13.1775 14.6503C14.1861 15.0801 15.3265 15.0801 16.3351 14.6503L17.2864 14.2434C18.2376 13.8365 19.3093 13.8136 20.2778 14.1746L21.7161 14.7133C22.7591 15.103 23.9224 15.0457 24.9196 14.5471L25.229 14.3924C26.2261 13.8938 27.3895 13.8308 28.4324 14.2262L31.378 15.3322V8.45545C31.378 7.82508 30.8622 7.30933 30.2319 7.30933H7.3036C6.67323 7.30933 6.15747 7.82508 6.15747 8.45545V8.44972Z" stroke="#C09342" stroke-width="1.5" stroke-linecap="square" stroke-linejoin="round"/>
<path id="Vector_8" d="M18.7651 18.7651V29.6533" stroke="#C09342" stroke-width="1.5" stroke-linecap="square" stroke-linejoin="round"/>
<path id="Vector_9" d="M15.3267 29.6531H22.2034" stroke="#C09342" stroke-width="1.5" stroke-linecap="round" stroke-linejoin="round"/>
</g>
<g id="Group_5">
<path id="Vector_10" d="M12.4612 5.01138L14.1804 1.573H23.3494L21.6302 5.01138" stroke="#C09342" stroke-width="1.5" stroke-linecap="round" stroke-linejoin="round"/>
<path id="Vector_11" d="M23.3496 1.573L25.0688 5.01138" stroke="#C09342" stroke-width="1.5" stroke-linecap="round" stroke-linejoin="round"/>
</g>
</g>
</g>
</svg>
