<svg width="38" height="34" viewBox="0 0 38 34" fill="none" xmlns="http://www.w3.org/2000/svg">
<g id="salads">
<g id="Group">
<path id="Vector" d="M1 13.6074C1 21.2005 5.58451 28.5071 12.4613 30.2148V32.5185C12.4613 32.8337 12.7191 33.0916 13.0343 33.0916H24.4956C24.8108 33.0916 25.0687 32.8337 25.0687 32.5185V30.2148C31.9454 28.5071 36.5299 21.1948 36.5299 13.6074H1Z" stroke="#C09342" stroke-width="1.5" stroke-linecap="round" stroke-linejoin="round"/>
<path id="Vector_2" d="M18.7649 30.2261H25.0686" stroke="#C09342" stroke-width="1.5" stroke-linecap="round" stroke-linejoin="round"/>
</g>
<g id="Group_2">
<g id="Group_3">
<path id="Vector_3" d="M5.01147 11.3151C5.01147 8.1518 7.5788 5.58447 10.7421 5.58447C13.9054 5.58447 16.4727 8.1518 16.4727 11.3151" stroke="#C09342" stroke-width="1.5" stroke-linecap="round" stroke-linejoin="round"/>
<path id="Vector_4" d="M10.7419 8.44971V9.02277" stroke="#C09342" stroke-width="1.5" stroke-linecap="round" stroke-linejoin="round"/>
<path id="Vector_5" d="M13.8081 9.68164L13.407 10.0828" stroke="#C09342" stroke-width="1.5" stroke-linecap="round" stroke-linejoin="round"/>
<path id="Vector_6" d="M7.67627 9.68164L8.07741 10.0828" stroke="#C09342" stroke-width="1.5" stroke-linecap="round" stroke-linejoin="round"/>
</g>
<path id="Vector_7" d="M25.3323 4.43818C29.0113 3.20036 33.0916 3.29205 33.0916 3.29205C33.0916 3.29205 33.5214 7.51553 32.5185 11.3149" stroke="#C09342" stroke-width="1.5" stroke-linecap="round" stroke-linejoin="round"/>
<g id="Group_4">
<path id="Vector_8" d="M13.0344 2.71919V1C13.0344 1 21.6304 1 25.0688 4.43838C27.4584 6.82805 27.5501 9.50999 26.7879 11.3151" stroke="#C09342" stroke-width="1.5" stroke-linecap="round" stroke-linejoin="round"/>
<path id="Vector_9" d="M17.6189 6.15747L22.7765 11.315" stroke="#C09342" stroke-width="1.5" stroke-linecap="round" stroke-linejoin="round"/>
<path id="Vector_10" d="M21.0571 6.15747V9.59585" stroke="#C09342" stroke-width="1.5" stroke-linecap="round" stroke-linejoin="round"/>
</g>
</g>
</g>
</svg>
