<svg width="38" height="33" viewBox="0 0 38 33" fill="none" xmlns="http://www.w3.org/2000/svg">
<g id="sausage-grill-barbecue">
<g id="Group">
<path id="Vector" d="M13.4184 17.04L13.0344 22.7707C13.0344 22.7707 15.3267 25.0629 16.4728 28.5013V31.9397" stroke="#C09342" stroke-width="1.5" stroke-linecap="round" stroke-linejoin="round"/>
<path id="Vector_2" d="M23.9224 14.7478L24.4955 22.7707C24.4955 22.7707 22.2033 25.0629 21.0571 28.5013V31.9397" stroke="#C09342" stroke-width="1.5" stroke-linecap="round" stroke-linejoin="round"/>
<path id="Vector_3" d="M21.0572 14.7478V19.3323C21.0572 20.593 20.0256 21.6246 18.7649 21.6246C17.5042 21.6246 16.4727 20.593 16.4727 19.3323V14.7478" stroke="#C09342" stroke-width="1.5" stroke-linecap="round" stroke-linejoin="round"/>
</g>
<g id="Group_2">
<path id="Vector_4" d="M4.08879 5.57886C3.34381 8.07168 4.4842 10.8052 6.95411 12.0487C10.4097 13.7909 14.8108 14.7479 19.338 14.7479C23.2234 14.7479 26.9655 14.0602 30.1574 12.7593C33.0457 11.5846 34.4153 8.38687 33.2577 5.57886" stroke="#C09342" stroke-width="1.5" stroke-linecap="round" stroke-linejoin="round"/>
<path id="Vector_5" d="M3.86532 6.7249L1 5.57878L2.22636 4.35242C2.54727 4.03151 2.76504 3.62463 2.85099 3.18337L3.28652 1L5.51001 3.22349C7.2292 1.53295 9.94552 1.04585 12.232 2.1977C14.0601 3.12033 16.6504 3.64755 19.3323 3.64755C21.6704 3.64755 23.934 3.25214 25.7048 2.53008C27.8022 1.67621 30.1288 2.12893 31.7277 3.49856L34.2262 1L34.6961 3.35529C34.7649 3.6934 34.9024 4.00858 35.1087 4.28365L36.5185 6.15757L33.6532 6.73063" stroke="#C09342" stroke-width="1.5" stroke-linecap="round" stroke-linejoin="round"/>
<g id="Group_3">
<path id="Vector_6" d="M18.7649 3.85962V8.44413" stroke="#C09342" stroke-width="1.5" stroke-linecap="round" stroke-linejoin="round"/>
<path id="Vector_7" d="M22.7764 3.85962C22.7764 3.85962 24.4956 5.57881 24.4956 7.87106" stroke="#C09342" stroke-width="1.5" stroke-linecap="round" stroke-linejoin="round"/>
<path id="Vector_8" d="M26.7878 2.71338C26.7878 2.71338 28.507 3.28644 29.0801 6.15176" stroke="#C09342" stroke-width="1.5" stroke-linecap="round" stroke-linejoin="round"/>
<path id="Vector_9" d="M14.7534 3.85962C14.7534 3.85962 13.0342 5.57881 13.0342 7.87106" stroke="#C09342" stroke-width="1.5" stroke-linecap="round" stroke-linejoin="round"/>
<path id="Vector_10" d="M11.315 2.14038C11.315 2.14038 9.02277 3.28651 8.44971 6.15182" stroke="#C09342" stroke-width="1.5" stroke-linecap="round" stroke-linejoin="round"/>
</g>
</g>
</g>
</svg>
