<svg width="38" height="38" viewBox="0 0 38 38" fill="none" xmlns="http://www.w3.org/2000/svg">
<g id="appetizers-skewer">
<g id="Group">
<path id="Vector" d="M36.0717 31.3723C36.4786 32.0715 36.639 32.9311 36.4557 33.8308C36.1863 35.1316 35.1319 36.1803 33.8368 36.4497C31.6133 36.9139 29.6591 35.2291 29.6591 33.0858C29.6591 32.4554 29.8311 31.8594 30.129 31.3551C30.3984 30.8967 30.3353 30.3236 29.9629 29.9511L27.9399 27.9282" stroke="#C09342" stroke-width="1.5" stroke-linecap="round" stroke-linejoin="round"/>
<path id="Vector_2" d="M3.29225 3.29225L1 1" stroke="#C09342" stroke-width="1.5" stroke-linecap="round" stroke-linejoin="round"/>
</g>
<g id="Group_2">
<path id="Vector_3" d="M15.8996 25.6417C11.4698 25.6417 7.87671 22.0486 7.87671 17.6188C7.87671 13.1891 11.4698 9.59595 15.8996 9.59595C18.4555 9.59595 20.7363 10.7936 22.2033 12.6561" stroke="#C09342" stroke-width="1.5" stroke-linecap="round" stroke-linejoin="round"/>
<path id="Vector_4" d="M11.3152 17.6188C11.3152 15.6933 12.5014 14.0486 14.1805 13.3667" stroke="#C09342" stroke-width="1.5" stroke-linecap="round" stroke-linejoin="round"/>
</g>
<g id="Group_3">
<path id="Vector_5" d="M24.4955 23.9228H22.7764C22.7764 23.9228 18.9712 20.5188 16.4727 18.1921" stroke="#C09342" stroke-width="1.5" stroke-linecap="round" stroke-linejoin="round"/>
<path id="Vector_6" d="M22.7761 25.642V23.9229" stroke="#C09342" stroke-width="1.5" stroke-linecap="round" stroke-linejoin="round"/>
<path id="Vector_7" d="M32.5183 28.5071C32.5183 28.5071 33.7332 24.7077 33.6645 22.7765C33.6645 22.7765 33.4754 21.2349 32.9768 20.7708C32.9768 20.7708 31.9453 22.7765 27.9338 23.9226" stroke="#C09342" stroke-width="1.5" stroke-linecap="round" stroke-linejoin="round"/>
<path id="Vector_8" d="M32.9769 20.7708C32.9769 20.7708 31.4411 18.4098 29.4755 17.5158L25.911 15.7966L16.4727 18.192V28.5072L21.6302 32.5186C21.6302 32.5186 24.5127 32.1232 26.2147 31.3725" stroke="#C09342" stroke-width="1.5" stroke-linecap="round" stroke-linejoin="round"/>
</g>
<g id="Group_4">
<path id="Vector_9" d="M15.8998 7.30362C15.8998 7.30362 13.8483 5.06867 12.4614 4.4383C12.4614 4.4383 6.73081 3.86524 4.83397 4.70191C4.83397 4.70191 1.41279 7.10878 2.14631 8.44974L5.50446 11.3265C5.91133 11.6761 6.46147 11.8136 6.98869 11.699C8.27809 11.4182 9.36691 11.0056 11.3153 10.7363" stroke="#C09342" stroke-width="1.5" stroke-linecap="round" stroke-linejoin="round"/>
<path id="Vector_10" d="M2.14624 8.44995V15.3267C2.14624 15.3267 4.9256 18.7651 5.58462 18.7651H7.87687" stroke="#C09342" stroke-width="1.5" stroke-linecap="round" stroke-linejoin="round"/>
</g>
</g>
</svg>
