<svg width="38" height="38" viewBox="0 0 38 38" fill="none" xmlns="http://www.w3.org/2000/svg">
<g id="soups">
<g id="Group">
<path id="Vector" d="M32.5185 17.0476C32.5185 18.7668 26.9942 20.486 18.765 20.486C10.5358 20.486 5.01147 18.7668 5.01147 17.0476" stroke="#C09342" stroke-width="1.5" stroke-linecap="round" stroke-linejoin="round"/>
<g id="Group_2">
<path id="Vector_2" d="M7.87671 31.9473C7.87671 31.9473 10.742 33.6665 14.1804 33.6665" stroke="#C09342" stroke-width="1.5" stroke-linecap="round" stroke-linejoin="round"/>
<path id="Vector_3" d="M29.6533 31.9473C29.6533 31.9473 26.788 33.6665 23.3496 33.6665" stroke="#C09342" stroke-width="1.5" stroke-linecap="round" stroke-linejoin="round"/>
</g>
<path id="Vector_4" d="M12.4613 11.082C11.4584 11.1966 10.5014 11.3342 9.59595 11.5004C4.44411 12.4459 1 14.211 1 16.4746C1 16.4746 1 29.655 10.7421 33.6665C10.7421 33.6665 11.8882 36.5318 18.765 36.5318C25.6417 36.5318 26.7878 33.6665 26.7878 33.6665C36.5299 29.655 36.5299 16.4746 36.5299 16.4746C36.5299 14.5663 34.0829 13.0133 30.2262 12.0047" stroke="#C09342" stroke-width="1.5" stroke-linecap="round" stroke-linejoin="round"/>
</g>
<path id="Vector_5" d="M18.7651 16.612C20.0373 15.0533 31.0115 -1.97241 35.5903 1.45451C40.467 5.10493 24.8167 15.0189 23.0746 16.612" stroke="#C09342" stroke-width="1.5" stroke-linecap="round" stroke-linejoin="round"/>
<g id="Group_3">
<path id="Vector_6" d="M14.1804 1.00171C14.1804 1.00171 15.7793 2.23953 14.1804 4.44009C12.5759 6.64065 14.1804 7.87847 14.1804 7.87847" stroke="#C09342" stroke-width="1.5" stroke-linecap="round" stroke-linejoin="round"/>
<path id="Vector_7" d="M17.0459 5.58618C17.0459 5.58618 18.6448 6.824 17.0459 9.02456C15.4413 11.2251 17.0459 12.4629 17.0459 12.4629" stroke="#C09342" stroke-width="1.5" stroke-linecap="round" stroke-linejoin="round"/>
</g>
</g>
</svg>
