<svg width="38" height="38" viewBox="0 0 38 38" fill="none" xmlns="http://www.w3.org/2000/svg">
<g id="waiter-services">
<path id="Vector" d="M7.87676 18.1919H36.5299C36.5299 20.4096 34.7362 22.2033 32.5185 22.2033H5.01144C2.79369 22.2033 1 20.4096 1 18.1919H3.29225" stroke="#C09342" stroke-width="1.5" stroke-linecap="round" stroke-linejoin="round"/>
<path id="Vector_2" d="M2.18628 18.1918C2.79373 9.91105 9.98567 3.86523 18.765 3.86523C27.5443 3.86523 34.7305 9.91105 35.3437 18.1918" stroke="#C09342" stroke-width="1.5" stroke-linecap="round" stroke-linejoin="round"/>
<path id="Vector_3" d="M8.44995 12.9083C9.59608 11.3152 11.3153 9.59601 13.0345 9.02295" stroke="#C09342" stroke-width="1.5" stroke-linecap="round" stroke-linejoin="round"/>
<g id="Group">
<path id="Vector_4" d="M15.8997 36.53C15.8997 36.53 18.9827 32.3867 21.6303 30.7993C24.4956 29.0801 28.5071 22.7764 32.5185 22.2034" stroke="#C09342" stroke-width="1.5" stroke-miterlimit="10" stroke-linecap="round"/>
<path id="Vector_5" d="M9.5961 22.7764C9.5961 22.7764 9.15484 24.9712 9.42991 27.0514C9.50441 27.6016 9.28091 28.1402 8.8855 28.5299C7.91129 29.4812 6.32391 31.5786 6.72505 34.8107L5.00586 36.5299" stroke="#C09342" stroke-width="1.5" stroke-linecap="round" stroke-linejoin="round"/>
<path id="Vector_6" d="M12.4612 22.2034L12.8967 23.9455C12.9884 24.3065 13.0342 24.6847 13.0342 25.0572V27.3609C13.0342 28.3122 13.8021 29.0801 14.7534 29.0801H15.3265C15.3265 29.0801 16.4726 22.2034 18.7649 22.2034" stroke="#C09342" stroke-width="1.5" stroke-linecap="round" stroke-linejoin="round"/>
<path id="Vector_7" d="M15.3266 29.0801C15.3266 29.0801 11.3553 29.9626 10.3811 33.6646" stroke="#C09342" stroke-width="1.5" stroke-miterlimit="10" stroke-linecap="round"/>
<path id="Vector_8" d="M21.0571 22.2034C21.0571 22.2034 19.3379 25.0687 19.3379 27.3609L26.2147 22.2034" stroke="#C09342" stroke-width="1.5" stroke-linecap="round" stroke-linejoin="round"/>
</g>
<path id="Vector_9" d="M16.4727 3.29225C16.4727 2.02578 17.4984 1 18.7649 1C20.0314 1 21.0572 2.02578 21.0572 3.29225" stroke="#C09342" stroke-width="1.5" stroke-linecap="round" stroke-linejoin="round"/>
</g>
</svg>
